<svg version="1.1" id="Layer_1" xmlns="http://www.w3.org/2000/svg" xmlns:xlink="http://www.w3.org/1999/xlink" x="0px" y="0px" viewBox="0 0 320 320" style="enable-background:new 0 0 320 320;" xml:space="preserve">
<style type="text/css">
    .st0{clip-path:url(#SVGID_00000103260940186519056080000004664375754916185743_);fill:#4C6586;}
</style>
<g>
    <g>
        <defs>
            <rect id="SVGID_1_" width="320" height="320"/>
        </defs>
        <clipPath id="SVGID_00000129898354476171238670000010308261381235200149_">
            <use xlink:href="#SVGID_1_" style="overflow:visible;"/>
        </clipPath>
        <!-- Bug/Error Analysis Icon -->
        <path style="clip-path:url(#SVGID_00000129898354476171238670000010308261381235200149_);fill:#4C6586;" d="M160,60c-15,0-30,5-42,15c-8,7-14,16-18,26l-12-8c-3-2-7-1-9,2l-8,12c-2,3-1,7,2,9l12,8c-1,5-1,10-1,15s0,10,1,15l-12,8c-3,2-4,6-2,9l8,12c2,3,6,4,9,2l12-8c4,10,10,19,18,26c12,10,27,15,42,15s30-5,42-15c8-7,14-16,18-26l12,8c3,2,7,1,9-2l8-12c2-3,1-7-2-9l-12-8c1-5,1-10,1-15s0-10-1-15l12-8c3-2,4-6,2-9l-8-12c-2-3-6-4-9-2l-12,8c-4-10-10-19-18-26C190,65,175,60,160,60z M160,90c20,0,36,16,36,36s-16,36-36,36s-36-16-36-36S140,90,160,90z"/>
        <!-- Center circle with exclamation mark -->
        <circle style="clip-path:url(#SVGID_00000129898354476171238670000010308261381235200149_);fill:#FFFFFF;" cx="160" cy="126" r="28"/>
        <path style="clip-path:url(#SVGID_00000129898354476171238670000010308261381235200149_);fill:#4C6586;" d="M156,110h8v8h-8V110z M156,128h8v8h-8V128z"/>
        <!-- Analysis lines/traces -->
        <path style="clip-path:url(#SVGID_00000129898354476171238670000010308261381235200149_);fill:#4C6586;" d="M80,200h160c4,0,8,3,8,8v8c0,4-4,8-8,8H80c-4,0-8-4-8-8v-8C72,203,76,200,80,200z"/>
        <path style="clip-path:url(#SVGID_00000129898354476171238670000010308261381235200149_);fill:#4C6586;" d="M100,235h120c4,0,8,3,8,8v8c0,4-4,8-8,8H100c-4,0-8-4-8-8v-8C92,238,96,235,100,235z"/>
        <path style="clip-path:url(#SVGID_00000129898354476171238670000010308261381235200149_);fill:#4C6586;" d="M120,270h80c4,0,8,3,8,8v8c0,4-4,8-8,8h-80c-4,0-8-4-8-8v-8C112,273,116,270,120,270z"/>
    </g>
</g>
</svg>
